<?xml version="1.0" encoding="utf-8" standalone="no"?>
<!DOCTYPE svg PUBLIC "-//W3C//DTD SVG 1.1//EN"
  "http://www.w3.org/Graphics/SVG/1.1/DTD/svg11.dtd">
<svg xmlns:xlink="http://www.w3.org/1999/xlink" width="504pt" height="360pt" viewBox="0 0 504 360" xmlns="http://www.w3.org/2000/svg" version="1.1">
 <metadata>
  <rdf:RDF xmlns:dc="http://purl.org/dc/elements/1.1/" xmlns:cc="http://creativecommons.org/ns#" xmlns:rdf="http://www.w3.org/1999/02/22-rdf-syntax-ns#">
   <cc:Work>
    <dc:type rdf:resource="http://purl.org/dc/dcmitype/StillImage"/>
    <dc:date>2026-09-06T11:58:13.285701</dc:date>
    <dc:format>image/svg+xml</dc:format>
    <dc:creator>
     <cc:Agent>
      <dc:title>Matplotlib v3.11.1, https://matplotlib.org/</dc:title>
     </cc:Agent>
    </dc:creator>
   </cc:Work>
  </rdf:RDF>
 </metadata>
 <defs>
  <style type="text/css">*{stroke-linejoin: round; stroke-linecap: butt}</style>
 </defs>
 <g id="figure_1">
  <g id="patch_1">
   <path d="M 0 360 
L 504 360 
L 504 0 
L 0 0 
z
" style="fill: #ffffff"/>
  </g>
  <g id="axes_1">
   <g id="patch_2">
    <path d="M 85.232578 142.217241 
L 484.56 142.217241 
L 484.56 38.544492 
L 85.232578 38.544492 
z
" style="fill: #ffffff"/>
   </g>
   <g id="matplotlib.axis_1">
    <g id="xtick_1">
     <g id="text_1">
      <!-- C1QC_like_TAM -->
      <g style="fill: #262626" transform="translate(87.405291 234.858864) rotate(-35) scale(0.165 -0.165)">
       <defs>
        <path id="ArialMT-26" d="M 3763 1606 
L 4369 1453 
Q 4178 706 3683 314 
Q 3188 -78 2472 -78 
Q 1731 -78 1267 223 
Q 803 525 561 1097 
Q 319 1669 319 2325 
Q 319 3041 592 3573 
Q 866 4106 1370 4382 
Q 1875 4659 2481 4659 
Q 3169 4659 3637 4309 
Q 4106 3959 4291 3325 
L 3694 3184 
Q 3534 3684 3231 3912 
Q 2928 4141 2469 4141 
Q 1941 4141 1586 3887 
Q 1231 3634 1087 3207 
Q 944 2781 944 2328 
Q 944 1744 1114 1308 
Q 1284 872 1643 656 
Q 2003 441 2422 441 
Q 2931 441 3284 734 
Q 3638 1028 3763 1606 
z
" transform="scale(0.015625)"/>
        <path id="ArialMT-14" d="M 2384 0 
L 1822 0 
L 1822 3584 
Q 1619 3391 1289 3197 
Q 959 3003 697 2906 
L 697 3450 
Q 1169 3672 1522 3987 
Q 1875 4303 2022 4600 
L 2384 4600 
L 2384 0 
z
" transform="scale(0.015625)"/>
        <path id="ArialMT-34" d="M 3966 491 
Q 4388 200 4744 66 
L 4566 -356 
Q 4072 -178 3581 206 
Q 3072 -78 2456 -78 
Q 1834 -78 1328 222 
Q 822 522 548 1065 
Q 275 1609 275 2291 
Q 275 2969 550 3525 
Q 825 4081 1333 4372 
Q 1841 4663 2469 4663 
Q 3103 4663 3612 4361 
Q 4122 4059 4389 3517 
Q 4656 2975 4656 2294 
Q 4656 1728 4484 1276 
Q 4313 825 3966 491 
z
M 2631 1266 
Q 3156 1119 3497 828 
Q 4031 1316 4031 2294 
Q 4031 2850 3842 3265 
Q 3653 3681 3289 3911 
Q 2925 4141 2472 4141 
Q 1794 4141 1347 3677 
Q 900 3213 900 2291 
Q 900 1397 1342 919 
Q 1784 441 2472 441 
Q 2797 441 3084 563 
Q 2800 747 2484 825 
L 2631 1266 
z
" transform="scale(0.015625)"/>
        <path id="ArialMT-42" d="M -97 -1272 
L -97 -866 
L 3631 -866 
L 3631 -1272 
L -97 -1272 
z
" transform="scale(0.015625)"/>
        <path id="ArialMT-4f" d="M 409 0 
L 409 4581 
L 972 4581 
L 972 0 
L 409 0 
z
" transform="scale(0.015625)"/>
        <path id="ArialMT-4c" d="M 425 3934 
L 425 4581 
L 988 4581 
L 988 3934 
L 425 3934 
z
M 425 0 
L 425 3319 
L 988 3319 
L 988 0 
L 425 0 
z
" transform="scale(0.015625)"/>
        <path id="ArialMT-4e" d="M 425 0 
L 425 4581 
L 988 4581 
L 988 1969 
L 2319 3319 
L 3047 3319 
L 1778 2088 
L 3175 0 
L 2481 0 
L 1384 1697 
L 988 1316 
L 988 0 
L 425 0 
z
" transform="scale(0.015625)"/>
        <path id="ArialMT-48" d="M 2694 1069 
L 3275 997 
Q 3138 488 2766 206 
Q 2394 -75 1816 -75 
Q 1088 -75 661 373 
Q 234 822 234 1631 
Q 234 2469 665 2931 
Q 1097 3394 1784 3394 
Q 2450 3394 2872 2941 
Q 3294 2488 3294 1666 
Q 3294 1616 3291 1516 
L 816 1516 
Q 847 969 1125 678 
Q 1403 388 1819 388 
Q 2128 388 2347 550 
Q 2566 713 2694 1069 
z
M 847 1978 
L 2700 1978 
Q 2663 2397 2488 2606 
Q 2219 2931 1791 2931 
Q 1403 2931 1139 2672 
Q 875 2413 847 1978 
z
" transform="scale(0.015625)"/>
        <path id="ArialMT-37" d="M 1659 0 
L 1659 4041 
L 150 4041 
L 150 4581 
L 3781 4581 
L 3781 4041 
L 2266 4041 
L 2266 0 
L 1659 0 
z
" transform="scale(0.015625)"/>
        <path id="ArialMT-24" d="M -9 0 
L 1750 4581 
L 2403 4581 
L 4278 0 
L 3588 0 
L 3053 1388 
L 1138 1388 
L 634 0 
L -9 0 
z
M 1313 1881 
L 2866 1881 
L 2388 3150 
Q 2169 3728 2063 4100 
Q 1975 3659 1816 3225 
L 1313 1881 
z
" transform="scale(0.015625)"/>
        <path id="ArialMT-30" d="M 475 0 
L 475 4581 
L 1388 4581 
L 2472 1338 
Q 2622 884 2691 659 
Q 2769 909 2934 1394 
L 4031 4581 
L 4847 4581 
L 4847 0 
L 4263 0 
L 4263 3834 
L 2931 0 
L 2384 0 
L 1059 3900 
L 1059 0 
L 475 0 
z
" transform="scale(0.015625)"/>
       </defs>
       <use xlink:href="#ArialMT-26"/>
       <use xlink:href="#ArialMT-14" transform="translate(72.21875 0)"/>
       <use xlink:href="#ArialMT-34" transform="translate(127.828125 0)"/>
       <use xlink:href="#ArialMT-26" transform="translate(205.609375 0)"/>
       <use xlink:href="#ArialMT-42" transform="translate(277.828125 0)"/>
       <use xlink:href="#ArialMT-4f" transform="translate(333.4375 0)"/>
       <use xlink:href="#ArialMT-4c" transform="translate(355.65625 0)"/>
       <use xlink:href="#ArialMT-4e" transform="translate(377.875 0)"/>
       <use xlink:href="#ArialMT-48" transform="translate(427.875 0)"/>
       <use xlink:href="#ArialMT-42" transform="translate(483.484375 0)"/>
       <use xlink:href="#ArialMT-37" transform="translate(539.09375 0)"/>
       <use xlink:href="#ArialMT-24" transform="translate(592.75 0)"/>
       <use xlink:href="#ArialMT-30" transform="translate(659.453125 0)"/>
      </g>
     </g>
    </g>
    <g id="xtick_2">
     <g id="text_2">
      <!-- FCN1_inflammatory_monocyte_like -->
      <g style="fill: #262626" transform="translate(130.393222 314.452415) rotate(-35) scale(0.165 -0.165)">
       <defs>
        <path id="ArialMT-29" d="M 525 0 
L 525 4581 
L 3616 4581 
L 3616 4041 
L 1131 4041 
L 1131 2622 
L 3281 2622 
L 3281 2081 
L 1131 2081 
L 1131 0 
L 525 0 
z
" transform="scale(0.015625)"/>
        <path id="ArialMT-31" d="M 488 0 
L 488 4581 
L 1109 4581 
L 3516 984 
L 3516 4581 
L 4097 4581 
L 4097 0 
L 3475 0 
L 1069 3600 
L 1069 0 
L 488 0 
z
" transform="scale(0.015625)"/>
        <path id="ArialMT-51" d="M 422 0 
L 422 3319 
L 928 3319 
L 928 2847 
Q 1294 3394 1984 3394 
Q 2284 3394 2536 3286 
Q 2788 3178 2913 3003 
Q 3038 2828 3088 2588 
Q 3119 2431 3119 2041 
L 3119 0 
L 2556 0 
L 2556 2019 
Q 2556 2363 2490 2533 
Q 2425 2703 2258 2804 
Q 2091 2906 1866 2906 
Q 1506 2906 1245 2678 
Q 984 2450 984 1813 
L 984 0 
L 422 0 
z
" transform="scale(0.015625)"/>
        <path id="ArialMT-49" d="M 556 0 
L 556 2881 
L 59 2881 
L 59 3319 
L 556 3319 
L 556 3672 
Q 556 4006 616 4169 
Q 697 4388 901 4523 
Q 1106 4659 1475 4659 
Q 1713 4659 2000 4603 
L 1916 4113 
Q 1741 4144 1584 4144 
Q 1328 4144 1222 4034 
Q 1116 3925 1116 3625 
L 1116 3319 
L 1763 3319 
L 1763 2881 
L 1116 2881 
L 1116 0 
L 556 0 
z
" transform="scale(0.015625)"/>
        <path id="ArialMT-44" d="M 2588 409 
Q 2275 144 1986 34 
Q 1697 -75 1366 -75 
Q 819 -75 525 192 
Q 231 459 231 875 
Q 231 1119 342 1320 
Q 453 1522 633 1644 
Q 813 1766 1038 1828 
Q 1203 1872 1538 1913 
Q 2219 1994 2541 2106 
Q 2544 2222 2544 2253 
Q 2544 2597 2384 2738 
Q 2169 2928 1744 2928 
Q 1347 2928 1158 2789 
Q 969 2650 878 2297 
L 328 2372 
Q 403 2725 575 2942 
Q 747 3159 1072 3276 
Q 1397 3394 1825 3394 
Q 2250 3394 2515 3294 
Q 2781 3194 2906 3042 
Q 3031 2891 3081 2659 
Q 3109 2516 3109 2141 
L 3109 1391 
Q 3109 606 3145 398 
Q 3181 191 3288 0 
L 2700 0 
Q 2613 175 2588 409 
z
M 2541 1666 
Q 2234 1541 1622 1453 
Q 1275 1403 1131 1340 
Q 988 1278 909 1158 
Q 831 1038 831 891 
Q 831 666 1001 516 
Q 1172 366 1500 366 
Q 1825 366 2078 508 
Q 2331 650 2450 897 
Q 2541 1088 2541 1459 
L 2541 1666 
z
" transform="scale(0.015625)"/>
        <path id="ArialMT-50" d="M 422 0 
L 422 3319 
L 925 3319 
L 925 2853 
Q 1081 3097 1340 3245 
Q 1600 3394 1931 3394 
Q 2300 3394 2536 3241 
Q 2772 3088 2869 2813 
Q 3263 3394 3894 3394 
Q 4388 3394 4653 3120 
Q 4919 2847 4919 2278 
L 4919 0 
L 4359 0 
L 4359 2091 
Q 4359 2428 4304 2576 
Q 4250 2725 4106 2815 
Q 3963 2906 3769 2906 
Q 3419 2906 3187 2673 
Q 2956 2441 2956 1928 
L 2956 0 
L 2394 0 
L 2394 2156 
Q 2394 2531 2256 2718 
Q 2119 2906 1806 2906 
Q 1569 2906 1367 2781 
Q 1166 2656 1075 2415 
Q 984 2175 984 1722 
L 984 0 
L 422 0 
z
" transform="scale(0.015625)"/>
        <path id="ArialMT-57" d="M 1650 503 
L 1731 6 
Q 1494 -44 1306 -44 
Q 1000 -44 831 53 
Q 663 150 594 308 
Q 525 466 525 972 
L 525 2881 
L 113 2881 
L 113 3319 
L 525 3319 
L 525 4141 
L 1084 4478 
L 1084 3319 
L 1650 3319 
L 1650 2881 
L 1084 2881 
L 1084 941 
Q 1084 700 1114 631 
Q 1144 563 1211 522 
Q 1278 481 1403 481 
Q 1497 481 1650 503 
z
" transform="scale(0.015625)"/>
        <path id="ArialMT-52" d="M 213 1659 
Q 213 2581 725 3025 
Q 1153 3394 1769 3394 
Q 2453 3394 2887 2945 
Q 3322 2497 3322 1706 
Q 3322 1066 3130 698 
Q 2938 331 2570 128 
Q 2203 -75 1769 -75 
Q 1072 -75 642 372 
Q 213 819 213 1659 
z
M 791 1659 
Q 791 1022 1069 705 
Q 1347 388 1769 388 
Q 2188 388 2466 706 
Q 2744 1025 2744 1678 
Q 2744 2294 2464 2611 
Q 2184 2928 1769 2928 
Q 1347 2928 1069 2612 
Q 791 2297 791 1659 
z
" transform="scale(0.015625)"/>
        <path id="ArialMT-55" d="M 416 0 
L 416 3319 
L 922 3319 
L 922 2816 
Q 1116 3169 1280 3281 
Q 1444 3394 1641 3394 
Q 1925 3394 2219 3213 
L 2025 2691 
Q 1819 2813 1613 2813 
Q 1428 2813 1281 2702 
Q 1134 2591 1072 2394 
Q 978 2094 978 1738 
L 978 0 
L 416 0 
z
" transform="scale(0.015625)"/>
        <path id="ArialMT-5c" d="M 397 -1278 
L 334 -750 
Q 519 -800 656 -800 
Q 844 -800 956 -737 
Q 1069 -675 1141 -563 
Q 1194 -478 1313 -144 
Q 1328 -97 1363 -6 
L 103 3319 
L 709 3319 
L 1400 1397 
Q 1534 1031 1641 628 
Q 1738 1016 1872 1384 
L 2581 3319 
L 3144 3319 
L 1881 -56 
Q 1678 -603 1566 -809 
Q 1416 -1088 1222 -1217 
Q 1028 -1347 759 -1347 
Q 597 -1347 397 -1278 
z
" transform="scale(0.015625)"/>
        <path id="ArialMT-46" d="M 2588 1216 
L 3141 1144 
Q 3050 572 2676 248 
Q 2303 -75 1759 -75 
Q 1078 -75 664 370 
Q 250 816 250 1647 
Q 250 2184 428 2587 
Q 606 2991 970 3192 
Q 1334 3394 1763 3394 
Q 2303 3394 2647 3120 
Q 2991 2847 3088 2344 
L 2541 2259 
Q 2463 2594 2264 2762 
Q 2066 2931 1784 2931 
Q 1359 2931 1093 2626 
Q 828 2322 828 1663 
Q 828 994 1084 691 
Q 1341 388 1753 388 
Q 2084 388 2306 591 
Q 2528 794 2588 1216 
z
" transform="scale(0.015625)"/>
       </defs>
       <use xlink:href="#ArialMT-29"/>
       <use xlink:href="#ArialMT-26" transform="translate(61.078125 0)"/>
       <use xlink:href="#ArialMT-31" transform="translate(133.296875 0)"/>
       <use xlink:href="#ArialMT-14" transform="translate(205.515625 0)"/>
       <use xlink:href="#ArialMT-42" transform="translate(261.125 0)"/>
       <use xlink:href="#ArialMT-4c" transform="translate(316.734375 0)"/>
       <use xlink:href="#ArialMT-51" transform="translate(338.953125 0)"/>
       <use xlink:href="#ArialMT-49" transform="translate(394.5625 0)"/>
       <use xlink:href="#ArialMT-4f" transform="translate(422.34375 0)"/>
       <use xlink:href="#ArialMT-44" transform="translate(444.5625 0)"/>
       <use xlink:href="#ArialMT-50" transform="translate(500.171875 0)"/>
       <use xlink:href="#ArialMT-50" transform="translate(583.46875 0)"/>
       <use xlink:href="#ArialMT-44" transform="translate(666.765625 0)"/>
       <use xlink:href="#ArialMT-57" transform="translate(722.375 0)"/>
       <use xlink:href="#ArialMT-52" transform="translate(750.15625 0)"/>
       <use xlink:href="#ArialMT-55" transform="translate(805.765625 0)"/>
       <use xlink:href="#ArialMT-5c" transform="translate(839.0625 0)"/>
       <use xlink:href="#ArialMT-42" transform="translate(889.0625 0)"/>
       <use xlink:href="#ArialMT-50" transform="translate(944.671875 0)"/>
       <use xlink:href="#ArialMT-52" transform="translate(1027.96875 0)"/>
       <use xlink:href="#ArialMT-51" transform="translate(1083.578125 0)"/>
       <use xlink:href="#ArialMT-52" transform="translate(1139.1875 0)"/>
       <use xlink:href="#ArialMT-46" transform="translate(1194.796875 0)"/>
       <use xlink:href="#ArialMT-5c" transform="translate(1244.796875 0)"/>
       <use xlink:href="#ArialMT-57" transform="translate(1294.796875 0)"/>
       <use xlink:href="#ArialMT-48" transform="translate(1322.578125 0)"/>
       <use xlink:href="#ArialMT-42" transform="translate(1378.1875 0)"/>
       <use xlink:href="#ArialMT-4f" transform="translate(1433.796875 0)"/>
       <use xlink:href="#ArialMT-4c" transform="translate(1456.015625 0)"/>
       <use xlink:href="#ArialMT-4e" transform="translate(1478.234375 0)"/>
       <use xlink:href="#ArialMT-48" transform="translate(1528.234375 0)"/>
      </g>
     </g>
    </g>
    <g id="xtick_3">
     <g id="text_3">
      <!-- SPP1_like_TAM -->
      <g style="fill: #262626" transform="translate(288.560474 232.758774) rotate(-35) scale(0.165 -0.165)">
       <defs>
        <path id="ArialMT-36" d="M 288 1472 
L 859 1522 
Q 900 1178 1048 958 
Q 1197 738 1509 602 
Q 1822 466 2213 466 
Q 2559 466 2825 569 
Q 3091 672 3220 851 
Q 3350 1031 3350 1244 
Q 3350 1459 3225 1620 
Q 3100 1781 2813 1891 
Q 2628 1963 1997 2114 
Q 1366 2266 1113 2400 
Q 784 2572 623 2826 
Q 463 3081 463 3397 
Q 463 3744 659 4045 
Q 856 4347 1234 4503 
Q 1613 4659 2075 4659 
Q 2584 4659 2973 4495 
Q 3363 4331 3572 4012 
Q 3781 3694 3797 3291 
L 3216 3247 
Q 3169 3681 2898 3903 
Q 2628 4125 2100 4125 
Q 1550 4125 1298 3923 
Q 1047 3722 1047 3438 
Q 1047 3191 1225 3031 
Q 1400 2872 2139 2705 
Q 2878 2538 3153 2413 
Q 3553 2228 3743 1945 
Q 3934 1663 3934 1294 
Q 3934 928 3725 604 
Q 3516 281 3123 101 
Q 2731 -78 2241 -78 
Q 1619 -78 1198 103 
Q 778 284 539 648 
Q 300 1013 288 1472 
z
" transform="scale(0.015625)"/>
        <path id="ArialMT-33" d="M 494 0 
L 494 4581 
L 2222 4581 
Q 2678 4581 2919 4538 
Q 3256 4481 3484 4323 
Q 3713 4166 3852 3881 
Q 3991 3597 3991 3256 
Q 3991 2672 3619 2267 
Q 3247 1863 2275 1863 
L 1100 1863 
L 1100 0 
L 494 0 
z
M 1100 2403 
L 2284 2403 
Q 2872 2403 3119 2622 
Q 3366 2841 3366 3238 
Q 3366 3525 3220 3729 
Q 3075 3934 2838 4000 
Q 2684 4041 2272 4041 
L 1100 4041 
L 1100 2403 
z
" transform="scale(0.015625)"/>
       </defs>
       <use xlink:href="#ArialMT-36"/>
       <use xlink:href="#ArialMT-33" transform="translate(66.703125 0)"/>
       <use xlink:href="#ArialMT-33" transform="translate(133.40625 0)"/>
       <use xlink:href="#ArialMT-14" transform="translate(200.109375 0)"/>
       <use xlink:href="#ArialMT-42" transform="translate(255.71875 0)"/>
       <use xlink:href="#ArialMT-4f" transform="translate(311.328125 0)"/>
       <use xlink:href="#ArialMT-4c" transform="translate(333.546875 0)"/>
       <use xlink:href="#ArialMT-4e" transform="translate(355.765625 0)"/>
       <use xlink:href="#ArialMT-48" transform="translate(405.765625 0)"/>
       <use xlink:href="#ArialMT-42" transform="translate(461.375 0)"/>
       <use xlink:href="#ArialMT-37" transform="translate(516.984375 0)"/>
       <use xlink:href="#ArialMT-24" transform="translate(570.640625 0)"/>
       <use xlink:href="#ArialMT-30" transform="translate(637.34375 0)"/>
      </g>
     </g>
    </g>
    <g id="xtick_4">
     <g id="text_4">
      <!-- resident_like -->
      <g style="fill: #262626" transform="translate(399.154452 217.687336) rotate(-35) scale(0.165 -0.165)">
       <defs>
        <path id="ArialMT-56" d="M 197 991 
L 753 1078 
Q 800 744 1014 566 
Q 1228 388 1613 388 
Q 2000 388 2187 545 
Q 2375 703 2375 916 
Q 2375 1106 2209 1216 
Q 2094 1291 1634 1406 
Q 1016 1563 777 1677 
Q 538 1791 414 1992 
Q 291 2194 291 2438 
Q 291 2659 392 2848 
Q 494 3038 669 3163 
Q 800 3259 1026 3326 
Q 1253 3394 1513 3394 
Q 1903 3394 2198 3281 
Q 2494 3169 2634 2976 
Q 2775 2784 2828 2463 
L 2278 2388 
Q 2241 2644 2061 2787 
Q 1881 2931 1553 2931 
Q 1166 2931 1000 2803 
Q 834 2675 834 2503 
Q 834 2394 903 2306 
Q 972 2216 1119 2156 
Q 1203 2125 1616 2013 
Q 2213 1853 2448 1751 
Q 2684 1650 2818 1456 
Q 2953 1263 2953 975 
Q 2953 694 2789 445 
Q 2625 197 2315 61 
Q 2006 -75 1616 -75 
Q 969 -75 630 194 
Q 291 463 197 991 
z
" transform="scale(0.015625)"/>
        <path id="ArialMT-47" d="M 2575 0 
L 2575 419 
Q 2259 -75 1647 -75 
Q 1250 -75 917 144 
Q 584 363 401 755 
Q 219 1147 219 1656 
Q 219 2153 384 2558 
Q 550 2963 881 3178 
Q 1213 3394 1622 3394 
Q 1922 3394 2156 3267 
Q 2391 3141 2538 2938 
L 2538 4581 
L 3097 4581 
L 3097 0 
L 2575 0 
z
M 797 1656 
Q 797 1019 1065 703 
Q 1334 388 1700 388 
Q 2069 388 2326 689 
Q 2584 991 2584 1609 
Q 2584 2291 2321 2609 
Q 2059 2928 1675 2928 
Q 1300 2928 1048 2622 
Q 797 2316 797 1656 
z
" transform="scale(0.015625)"/>
       </defs>
       <use xlink:href="#ArialMT-55"/>
       <use xlink:href="#ArialMT-48" transform="translate(33.296875 0)"/>
       <use xlink:href="#ArialMT-56" transform="translate(88.90625 0)"/>
       <use xlink:href="#ArialMT-4c" transform="translate(138.90625 0)"/>
       <use xlink:href="#ArialMT-47" transform="translate(161.125 0)"/>
       <use xlink:href="#ArialMT-48" transform="translate(216.734375 0)"/>
       <use xlink:href="#ArialMT-51" transform="translate(272.34375 0)"/>
       <use xlink:href="#ArialMT-57" transform="translate(327.953125 0)"/>
       <use xlink:href="#ArialMT-42" transform="translate(355.734375 0)"/>
       <use xlink:href="#ArialMT-4f" transform="translate(411.34375 0)"/>
       <use xlink:href="#ArialMT-4c" transform="translate(433.5625 0)"/>
       <use xlink:href="#ArialMT-4e" transform="translate(455.78125 0)"/>
       <use xlink:href="#ArialMT-48" transform="translate(505.78125 0)"/>
      </g>
     </g>
    </g>
    <g id="text_5">
     <!-- subtype -->
     <g style="fill: #262626" transform="translate(253.376602 334.401604) scale(0.18 -0.18)">
      <defs>
       <path id="ArialMT-58" d="M 2597 0 
L 2597 488 
Q 2209 -75 1544 -75 
Q 1250 -75 995 37 
Q 741 150 617 320 
Q 494 491 444 738 
Q 409 903 409 1263 
L 409 3319 
L 972 3319 
L 972 1478 
Q 972 1038 1006 884 
Q 1059 663 1231 536 
Q 1403 409 1656 409 
Q 1909 409 2131 539 
Q 2353 669 2445 892 
Q 2538 1116 2538 1541 
L 2538 3319 
L 3100 3319 
L 3100 0 
L 2597 0 
z
" transform="scale(0.015625)"/>
       <path id="ArialMT-45" d="M 941 0 
L 419 0 
L 419 4581 
L 981 4581 
L 981 2947 
Q 1338 3394 1891 3394 
Q 2197 3394 2470 3270 
Q 2744 3147 2920 2923 
Q 3097 2700 3197 2384 
Q 3297 2069 3297 1709 
Q 3297 856 2875 390 
Q 2453 -75 1863 -75 
Q 1275 -75 941 416 
L 941 0 
z
M 934 1684 
Q 934 1088 1097 822 
Q 1363 388 1816 388 
Q 2184 388 2453 708 
Q 2722 1028 2722 1663 
Q 2722 2313 2464 2622 
Q 2206 2931 1841 2931 
Q 1472 2931 1203 2611 
Q 934 2291 934 1684 
z
" transform="scale(0.015625)"/>
       <path id="ArialMT-53" d="M 422 -1272 
L 422 3319 
L 934 3319 
L 934 2888 
Q 1116 3141 1344 3267 
Q 1572 3394 1897 3394 
Q 2322 3394 2647 3175 
Q 2972 2956 3137 2557 
Q 3303 2159 3303 1684 
Q 3303 1175 3120 767 
Q 2938 359 2589 142 
Q 2241 -75 1856 -75 
Q 1575 -75 1351 44 
Q 1128 163 984 344 
L 984 -1272 
L 422 -1272 
z
M 931 1641 
Q 931 1000 1190 694 
Q 1450 388 1819 388 
Q 2194 388 2461 705 
Q 2728 1022 2728 1688 
Q 2728 2322 2467 2637 
Q 2206 2953 1844 2953 
Q 1484 2953 1207 2617 
Q 931 2281 931 1641 
z
" transform="scale(0.015625)"/>
      </defs>
      <use xlink:href="#ArialMT-56"/>
      <use xlink:href="#ArialMT-58" transform="translate(50 0)"/>
      <use xlink:href="#ArialMT-45" transform="translate(105.609375 0)"/>
      <use xlink:href="#ArialMT-57" transform="translate(161.21875 0)"/>
      <use xlink:href="#ArialMT-5c" transform="translate(189 0)"/>
      <use xlink:href="#ArialMT-53" transform="translate(239 0)"/>
      <use xlink:href="#ArialMT-48" transform="translate(294.609375 0)"/>
     </g>
    </g>
   </g>
   <g id="matplotlib.axis_2">
    <g id="ytick_1">
     <g id="text_6">
      <!-- 0.0 -->
      <g style="fill: #262626" transform="translate(49.797578 116.299411) scale(0.165 -0.165)">
       <defs>
        <path id="ArialMT-13" d="M 266 2259 
Q 266 3072 433 3567 
Q 600 4063 929 4331 
Q 1259 4600 1759 4600 
Q 2128 4600 2406 4451 
Q 2684 4303 2865 4023 
Q 3047 3744 3150 3342 
Q 3253 2941 3253 2259 
Q 3253 1453 3087 958 
Q 2922 463 2592 192 
Q 2263 -78 1759 -78 
Q 1097 -78 719 397 
Q 266 969 266 2259 
z
M 844 2259 
Q 844 1131 1108 757 
Q 1372 384 1759 384 
Q 2147 384 2411 759 
Q 2675 1134 2675 2259 
Q 2675 3391 2411 3762 
Q 2147 4134 1753 4134 
Q 1366 4134 1134 3806 
Q 844 3388 844 2259 
z
" transform="scale(0.015625)"/>
        <path id="ArialMT-11" d="M 581 0 
L 581 641 
L 1222 641 
L 1222 0 
L 581 0 
z
" transform="scale(0.015625)"/>
       </defs>
       <use xlink:href="#ArialMT-13"/>
       <use xlink:href="#ArialMT-11" transform="translate(55.609375 0)"/>
       <use xlink:href="#ArialMT-13" transform="translate(83.390625 0)"/>
      </g>
     </g>
    </g>
    <g id="ytick_2">
     <g id="text_7">
      <!-- 0.2 -->
      <g style="fill: #262626" transform="translate(49.797578 78.544438) scale(0.165 -0.165)">
       <defs>
        <path id="ArialMT-15" d="M 3222 541 
L 3222 0 
L 194 0 
Q 188 203 259 391 
Q 375 700 629 1000 
Q 884 1300 1366 1694 
Q 2113 2306 2375 2664 
Q 2638 3022 2638 3341 
Q 2638 3675 2398 3904 
Q 2159 4134 1775 4134 
Q 1369 4134 1125 3890 
Q 881 3647 878 3216 
L 300 3275 
Q 359 3922 746 4261 
Q 1134 4600 1788 4600 
Q 2447 4600 2831 4234 
Q 3216 3869 3216 3328 
Q 3216 3053 3103 2787 
Q 2991 2522 2730 2228 
Q 2469 1934 1863 1422 
Q 1356 997 1212 845 
Q 1069 694 975 541 
L 3222 541 
z
" transform="scale(0.015625)"/>
       </defs>
       <use xlink:href="#ArialMT-13"/>
       <use xlink:href="#ArialMT-11" transform="translate(55.609375 0)"/>
       <use xlink:href="#ArialMT-15" transform="translate(83.390625 0)"/>
      </g>
     </g>
    </g>
    <g id="text_8">
     <!-- dinp_crc_program_mean -->
     <g style="fill: #262626" transform="translate(42.009141 190.427117) rotate(-90) scale(0.18 -0.18)">
      <defs>
       <path id="ArialMT-4a" d="M 319 -275 
L 866 -356 
Q 900 -609 1056 -725 
Q 1266 -881 1628 -881 
Q 2019 -881 2231 -725 
Q 2444 -569 2519 -288 
Q 2563 -116 2559 434 
Q 2191 0 1641 0 
Q 956 0 581 494 
Q 206 988 206 1678 
Q 206 2153 378 2554 
Q 550 2956 876 3175 
Q 1203 3394 1644 3394 
Q 2231 3394 2613 2919 
L 2613 3319 
L 3131 3319 
L 3131 450 
Q 3131 -325 2973 -648 
Q 2816 -972 2473 -1159 
Q 2131 -1347 1631 -1347 
Q 1038 -1347 672 -1080 
Q 306 -813 319 -275 
z
M 784 1719 
Q 784 1066 1043 766 
Q 1303 466 1694 466 
Q 2081 466 2343 764 
Q 2606 1063 2606 1700 
Q 2606 2309 2336 2618 
Q 2066 2928 1684 2928 
Q 1309 2928 1046 2623 
Q 784 2319 784 1719 
z
" transform="scale(0.015625)"/>
      </defs>
      <use xlink:href="#ArialMT-47"/>
      <use xlink:href="#ArialMT-4c" transform="translate(55.609375 0)"/>
      <use xlink:href="#ArialMT-51" transform="translate(77.828125 0)"/>
      <use xlink:href="#ArialMT-53" transform="translate(133.4375 0)"/>
      <use xlink:href="#ArialMT-42" transform="translate(189.046875 0)"/>
      <use xlink:href="#ArialMT-46" transform="translate(244.65625 0)"/>
      <use xlink:href="#ArialMT-55" transform="translate(294.65625 0)"/>
      <use xlink:href="#ArialMT-46" transform="translate(327.953125 0)"/>
      <use xlink:href="#ArialMT-42" transform="translate(377.953125 0)"/>
      <use xlink:href="#ArialMT-53" transform="translate(433.5625 0)"/>
      <use xlink:href="#ArialMT-55" transform="translate(489.171875 0)"/>
      <use xlink:href="#ArialMT-52" transform="translate(522.46875 0)"/>
      <use xlink:href="#ArialMT-4a" transform="translate(578.078125 0)"/>
      <use xlink:href="#ArialMT-55" transform="translate(633.6875 0)"/>
      <use xlink:href="#ArialMT-44" transform="translate(666.984375 0)"/>
      <use xlink:href="#ArialMT-50" transform="translate(722.59375 0)"/>
      <use xlink:href="#ArialMT-42" transform="translate(805.890625 0)"/>
      <use xlink:href="#ArialMT-50" transform="translate(861.5 0)"/>
      <use xlink:href="#ArialMT-48" transform="translate(944.796875 0)"/>
      <use xlink:href="#ArialMT-44" transform="translate(1000.40625 0)"/>
      <use xlink:href="#ArialMT-51" transform="translate(1056.015625 0)"/>
     </g>
    </g>
   </g>
   <g id="patch_3">
    <path d="M 135.148506 110.293185 
L 135.148506 110.293185 
L 135.148506 110.293185 
L 135.148506 110.293185 
z
" clip-path="url(#p92fd5cf6d3)" style="fill: #72b6a1; stroke: #595959; stroke-width: 1.5; stroke-linejoin: miter"/>
   </g>
   <g id="patch_4">
    <path d="M 135.148506 110.293185 
L 135.148506 110.293185 
L 135.148506 110.293185 
L 135.148506 110.293185 
z
" clip-path="url(#p92fd5cf6d3)" style="fill: #e99675; stroke: #595959; stroke-width: 1.5; stroke-linejoin: miter"/>
   </g>
   <g id="patch_5">
    <path d="M 135.148506 110.293185 
L 135.148506 110.293185 
L 135.148506 110.293185 
L 135.148506 110.293185 
z
" clip-path="url(#p92fd5cf6d3)" style="fill: #95a3c3; stroke: #595959; stroke-width: 1.5; stroke-linejoin: miter"/>
   </g>
   <g id="patch_6">
    <path d="M 95.215764 113.916441 
L 121.837592 113.916441 
L 121.837592 107.755834 
L 95.215764 107.755834 
L 95.215764 113.916441 
z
" clip-path="url(#p92fd5cf6d3)" style="fill: #72b6a1; stroke: #595959; stroke-linejoin: miter"/>
   </g>
   <g id="line2d_1">
    <path d="M 108.526678 113.916441 
L 108.526678 114.062046 
" clip-path="url(#p92fd5cf6d3)" style="fill: none; stroke: #595959"/>
   </g>
   <g id="line2d_2">
    <path d="M 108.526678 107.755834 
L 108.526678 105.855652 
" clip-path="url(#p92fd5cf6d3)" style="fill: none; stroke: #595959"/>
   </g>
   <g id="line2d_3">
    <path d="M 101.871221 114.062046 
L 115.182135 114.062046 
" clip-path="url(#p92fd5cf6d3)" style="fill: none; stroke: #595959; stroke-linecap: round"/>
   </g>
   <g id="line2d_4">
    <path d="M 101.871221 105.855652 
L 115.182135 105.855652 
" clip-path="url(#p92fd5cf6d3)" style="fill: none; stroke: #595959; stroke-linecap: round"/>
   </g>
   <g id="line2d_5">
    <defs>
     <path id="m178d777797" d="M 0 0.5 
C 0.132602 0.5 0.25979 0.447317 0.353553 0.353553 
C 0.447317 0.25979 0.5 0.132602 0.5 0 
C 0.5 -0.132602 0.447317 -0.25979 0.353553 -0.353553 
C 0.25979 -0.447317 0.132602 -0.5 0 -0.5 
C -0.132602 -0.5 -0.25979 -0.447317 -0.353553 -0.353553 
C -0.447317 -0.25979 -0.5 -0.132602 -0.5 0 
C -0.5 0.132602 -0.447317 0.25979 -0.353553 0.353553 
C -0.25979 0.447317 -0.132602 0.5 0 0.5 
z
" style="stroke: #595959"/>
    </defs>
    <g clip-path="url(#p92fd5cf6d3)">
     <use xlink:href="#m178d777797" x="108.526678" y="137.504843" style="fill-opacity: 0; stroke: #595959"/>
    </g>
   </g>
   <g id="patch_7">
    <path d="M 195.047619 119.456303 
L 221.669447 119.456303 
L 221.669447 104.698681 
L 195.047619 104.698681 
L 195.047619 119.456303 
z
" clip-path="url(#p92fd5cf6d3)" style="fill: #72b6a1; stroke: #595959; stroke-linejoin: miter"/>
   </g>
   <g id="line2d_6">
    <path d="M 208.358533 119.456303 
L 208.358533 121.364856 
" clip-path="url(#p92fd5cf6d3)" style="fill: none; stroke: #595959"/>
   </g>
   <g id="line2d_7">
    <path d="M 208.358533 104.698681 
L 208.358533 98.733912 
" clip-path="url(#p92fd5cf6d3)" style="fill: none; stroke: #595959"/>
   </g>
   <g id="line2d_8">
    <path d="M 201.703076 121.364856 
L 215.01399 121.364856 
" clip-path="url(#p92fd5cf6d3)" style="fill: none; stroke: #595959; stroke-linecap: round"/>
   </g>
   <g id="line2d_9">
    <path d="M 201.703076 98.733912 
L 215.01399 98.733912 
" clip-path="url(#p92fd5cf6d3)" style="fill: none; stroke: #595959; stroke-linecap: round"/>
   </g>
   <g id="line2d_10"/>
   <g id="patch_8">
    <path d="M 294.879475 114.787806 
L 321.501303 114.787806 
L 321.501303 104.433165 
L 294.879475 104.433165 
L 294.879475 114.787806 
z
" clip-path="url(#p92fd5cf6d3)" style="fill: #72b6a1; stroke: #595959; stroke-linejoin: miter"/>
   </g>
   <g id="line2d_11">
    <path d="M 308.190389 114.787806 
L 308.190389 119.184097 
" clip-path="url(#p92fd5cf6d3)" style="fill: none; stroke: #595959"/>
   </g>
   <g id="line2d_12">
    <path d="M 308.190389 104.433165 
L 308.190389 101.865878 
" clip-path="url(#p92fd5cf6d3)" style="fill: none; stroke: #595959"/>
   </g>
   <g id="line2d_13">
    <path d="M 301.534932 119.184097 
L 314.845846 119.184097 
" clip-path="url(#p92fd5cf6d3)" style="fill: none; stroke: #595959; stroke-linecap: round"/>
   </g>
   <g id="line2d_14">
    <path d="M 301.534932 101.865878 
L 314.845846 101.865878 
" clip-path="url(#p92fd5cf6d3)" style="fill: none; stroke: #595959; stroke-linecap: round"/>
   </g>
   <g id="line2d_15"/>
   <g id="patch_9">
    <path d="M 394.71133 129.55504 
L 421.333158 129.55504 
L 421.333158 113.402694 
L 394.71133 113.402694 
L 394.71133 129.55504 
z
" clip-path="url(#p92fd5cf6d3)" style="fill: #72b6a1; stroke: #595959; stroke-linejoin: miter"/>
   </g>
   <g id="line2d_16">
    <path d="M 408.022244 129.55504 
L 408.022244 130.143575 
" clip-path="url(#p92fd5cf6d3)" style="fill: none; stroke: #595959"/>
   </g>
   <g id="line2d_17">
    <path d="M 408.022244 113.402694 
L 408.022244 108.523805 
" clip-path="url(#p92fd5cf6d3)" style="fill: none; stroke: #595959"/>
   </g>
   <g id="line2d_18">
    <path d="M 401.366787 130.143575 
L 414.677701 130.143575 
" clip-path="url(#p92fd5cf6d3)" style="fill: none; stroke: #595959; stroke-linecap: round"/>
   </g>
   <g id="line2d_19">
    <path d="M 401.366787 108.523805 
L 414.677701 108.523805 
" clip-path="url(#p92fd5cf6d3)" style="fill: none; stroke: #595959; stroke-linecap: round"/>
   </g>
   <g id="line2d_20"/>
   <g id="patch_10">
    <path d="M 121.837592 122.062327 
L 148.45942 122.062327 
L 148.45942 109.215515 
L 121.837592 109.215515 
L 121.837592 122.062327 
z
" clip-path="url(#p92fd5cf6d3)" style="fill: #e99675; stroke: #595959; stroke-linejoin: miter"/>
   </g>
   <g id="line2d_21">
    <path d="M 135.148506 122.062327 
L 135.148506 135.680453 
" clip-path="url(#p92fd5cf6d3)" style="fill: none; stroke: #595959"/>
   </g>
   <g id="line2d_22">
    <path d="M 135.148506 109.215515 
L 135.148506 105.204895 
" clip-path="url(#p92fd5cf6d3)" style="fill: none; stroke: #595959"/>
   </g>
   <g id="line2d_23">
    <path d="M 128.493049 135.680453 
L 141.803963 135.680453 
" clip-path="url(#p92fd5cf6d3)" style="fill: none; stroke: #595959; stroke-linecap: round"/>
   </g>
   <g id="line2d_24">
    <path d="M 128.493049 105.204895 
L 141.803963 105.204895 
" clip-path="url(#p92fd5cf6d3)" style="fill: none; stroke: #595959; stroke-linecap: round"/>
   </g>
   <g id="line2d_25"/>
   <g id="patch_11">
    <path d="M 221.669447 109.954182 
L 248.291275 109.954182 
L 248.291275 102.007924 
L 221.669447 102.007924 
L 221.669447 109.954182 
z
" clip-path="url(#p92fd5cf6d3)" style="fill: #e99675; stroke: #595959; stroke-linejoin: miter"/>
   </g>
   <g id="line2d_26">
    <path d="M 234.980361 109.954182 
L 234.980361 117.315968 
" clip-path="url(#p92fd5cf6d3)" style="fill: none; stroke: #595959"/>
   </g>
   <g id="line2d_27">
    <path d="M 234.980361 102.007924 
L 234.980361 100.46062 
" clip-path="url(#p92fd5cf6d3)" style="fill: none; stroke: #595959"/>
   </g>
   <g id="line2d_28">
    <path d="M 228.324904 117.315968 
L 241.635818 117.315968 
" clip-path="url(#p92fd5cf6d3)" style="fill: none; stroke: #595959; stroke-linecap: round"/>
   </g>
   <g id="line2d_29">
    <path d="M 228.324904 100.46062 
L 241.635818 100.46062 
" clip-path="url(#p92fd5cf6d3)" style="fill: none; stroke: #595959; stroke-linecap: round"/>
   </g>
   <g id="line2d_30"/>
   <g id="patch_12">
    <path d="M 321.501303 104.459966 
L 348.123131 104.459966 
L 348.123131 104.459966 
L 321.501303 104.459966 
L 321.501303 104.459966 
z
" clip-path="url(#p92fd5cf6d3)" style="fill: #e99675; stroke: #595959; stroke-linejoin: miter"/>
   </g>
   <g id="line2d_31">
    <path d="M 334.812217 104.459966 
L 334.812217 104.459966 
" clip-path="url(#p92fd5cf6d3)" style="fill: none; stroke: #595959"/>
   </g>
   <g id="line2d_32">
    <path d="M 334.812217 104.459966 
L 334.812217 104.459966 
" clip-path="url(#p92fd5cf6d3)" style="fill: none; stroke: #595959"/>
   </g>
   <g id="line2d_33">
    <path d="M 328.15676 104.459966 
L 341.467674 104.459966 
" clip-path="url(#p92fd5cf6d3)" style="fill: none; stroke: #595959; stroke-linecap: round"/>
   </g>
   <g id="line2d_34">
    <path d="M 328.15676 104.459966 
L 341.467674 104.459966 
" clip-path="url(#p92fd5cf6d3)" style="fill: none; stroke: #595959; stroke-linecap: round"/>
   </g>
   <g id="line2d_35"/>
   <g id="patch_13">
    <path d="M 421.333158 121.931299 
L 447.954986 121.931299 
L 447.954986 119.285996 
L 421.333158 119.285996 
L 421.333158 121.931299 
z
" clip-path="url(#p92fd5cf6d3)" style="fill: #e99675; stroke: #595959; stroke-linejoin: miter"/>
   </g>
   <g id="line2d_36">
    <path d="M 434.644072 121.931299 
L 434.644072 122.505003 
" clip-path="url(#p92fd5cf6d3)" style="fill: none; stroke: #595959"/>
   </g>
   <g id="line2d_37">
    <path d="M 434.644072 119.285996 
L 434.644072 116.278804 
" clip-path="url(#p92fd5cf6d3)" style="fill: none; stroke: #595959"/>
   </g>
   <g id="line2d_38">
    <path d="M 427.988615 122.505003 
L 441.299529 122.505003 
" clip-path="url(#p92fd5cf6d3)" style="fill: none; stroke: #595959; stroke-linecap: round"/>
   </g>
   <g id="line2d_39">
    <path d="M 427.988615 116.278804 
L 441.299529 116.278804 
" clip-path="url(#p92fd5cf6d3)" style="fill: none; stroke: #595959; stroke-linecap: round"/>
   </g>
   <g id="line2d_40">
    <g clip-path="url(#p92fd5cf6d3)">
     <use xlink:href="#m178d777797" x="434.644072" y="127.39485" style="fill-opacity: 0; stroke: #595959"/>
    </g>
   </g>
   <g id="patch_14">
    <path d="M 148.45942 126.949069 
L 175.081248 126.949069 
L 175.081248 110.706483 
L 148.45942 110.706483 
L 148.45942 126.949069 
z
" clip-path="url(#p92fd5cf6d3)" style="fill: #95a3c3; stroke: #595959; stroke-linejoin: miter"/>
   </g>
   <g id="line2d_41">
    <path d="M 161.770334 126.949069 
L 161.770334 132.377669 
" clip-path="url(#p92fd5cf6d3)" style="fill: none; stroke: #595959"/>
   </g>
   <g id="line2d_42">
    <path d="M 161.770334 110.706483 
L 161.770334 104.624786 
" clip-path="url(#p92fd5cf6d3)" style="fill: none; stroke: #595959"/>
   </g>
   <g id="line2d_43">
    <path d="M 155.114877 132.377669 
L 168.425791 132.377669 
" clip-path="url(#p92fd5cf6d3)" style="fill: none; stroke: #595959; stroke-linecap: round"/>
   </g>
   <g id="line2d_44">
    <path d="M 155.114877 104.624786 
L 168.425791 104.624786 
" clip-path="url(#p92fd5cf6d3)" style="fill: none; stroke: #595959; stroke-linecap: round"/>
   </g>
   <g id="line2d_45"/>
   <g id="patch_15">
    <path d="M 248.291275 114.002726 
L 274.913104 114.002726 
L 274.913104 105.011808 
L 248.291275 105.011808 
L 248.291275 114.002726 
z
" clip-path="url(#p92fd5cf6d3)" style="fill: #95a3c3; stroke: #595959; stroke-linejoin: miter"/>
   </g>
   <g id="line2d_46">
    <path d="M 261.602189 114.002726 
L 261.602189 114.94623 
" clip-path="url(#p92fd5cf6d3)" style="fill: none; stroke: #595959"/>
   </g>
   <g id="line2d_47">
    <path d="M 261.602189 105.011808 
L 261.602189 103.184805 
" clip-path="url(#p92fd5cf6d3)" style="fill: none; stroke: #595959"/>
   </g>
   <g id="line2d_48">
    <path d="M 254.946732 114.94623 
L 268.257646 114.94623 
" clip-path="url(#p92fd5cf6d3)" style="fill: none; stroke: #595959; stroke-linecap: round"/>
   </g>
   <g id="line2d_49">
    <path d="M 254.946732 103.184805 
L 268.257646 103.184805 
" clip-path="url(#p92fd5cf6d3)" style="fill: none; stroke: #595959; stroke-linecap: round"/>
   </g>
   <g id="line2d_50"/>
   <g id="patch_16">
    <path d="M 348.123131 104.392801 
L 374.744959 104.392801 
L 374.744959 93.300516 
L 348.123131 93.300516 
L 348.123131 104.392801 
z
" clip-path="url(#p92fd5cf6d3)" style="fill: #95a3c3; stroke: #595959; stroke-linejoin: miter"/>
   </g>
   <g id="line2d_51">
    <path d="M 361.434045 104.392801 
L 361.434045 111.491781 
" clip-path="url(#p92fd5cf6d3)" style="fill: none; stroke: #595959"/>
   </g>
   <g id="line2d_52">
    <path d="M 361.434045 93.300516 
L 361.434045 93.300516 
" clip-path="url(#p92fd5cf6d3)" style="fill: none; stroke: #595959"/>
   </g>
   <g id="line2d_53">
    <path d="M 354.778588 111.491781 
L 368.089502 111.491781 
" clip-path="url(#p92fd5cf6d3)" style="fill: none; stroke: #595959; stroke-linecap: round"/>
   </g>
   <g id="line2d_54">
    <path d="M 354.778588 93.300516 
L 368.089502 93.300516 
" clip-path="url(#p92fd5cf6d3)" style="fill: none; stroke: #595959; stroke-linecap: round"/>
   </g>
   <g id="line2d_55">
    <g clip-path="url(#p92fd5cf6d3)">
     <use xlink:href="#m178d777797" x="361.434045" y="72.219301" style="fill-opacity: 0; stroke: #595959"/>
    </g>
   </g>
   <g id="patch_17">
    <path d="M 447.954986 111.072587 
L 474.576814 111.072587 
L 474.576814 96.77662 
L 447.954986 96.77662 
L 447.954986 111.072587 
z
" clip-path="url(#p92fd5cf6d3)" style="fill: #95a3c3; stroke: #595959; stroke-linejoin: miter"/>
   </g>
   <g id="line2d_56">
    <path d="M 461.2659 111.072587 
L 461.2659 112.347372 
" clip-path="url(#p92fd5cf6d3)" style="fill: none; stroke: #595959"/>
   </g>
   <g id="line2d_57">
    <path d="M 461.2659 96.77662 
L 461.2659 96.77662 
" clip-path="url(#p92fd5cf6d3)" style="fill: none; stroke: #595959"/>
   </g>
   <g id="line2d_58">
    <path d="M 454.610443 112.347372 
L 467.921357 112.347372 
" clip-path="url(#p92fd5cf6d3)" style="fill: none; stroke: #595959; stroke-linecap: round"/>
   </g>
   <g id="line2d_59">
    <path d="M 454.610443 96.77662 
L 467.921357 96.77662 
" clip-path="url(#p92fd5cf6d3)" style="fill: none; stroke: #595959; stroke-linecap: round"/>
   </g>
   <g id="line2d_60">
    <g clip-path="url(#p92fd5cf6d3)">
     <use xlink:href="#m178d777797" x="461.2659" y="43.25689" style="fill-opacity: 0; stroke: #595959"/>
    </g>
   </g>
   <g id="line2d_61">
    <path d="M 95.215764 112.106075 
L 121.837592 112.106075 
" clip-path="url(#p92fd5cf6d3)" style="fill: none; stroke: #595959"/>
   </g>
   <g id="line2d_62">
    <path d="M 195.047619 111.857114 
L 221.669447 111.857114 
" clip-path="url(#p92fd5cf6d3)" style="fill: none; stroke: #595959"/>
   </g>
   <g id="line2d_63">
    <path d="M 294.879475 110.66662 
L 321.501303 110.66662 
" clip-path="url(#p92fd5cf6d3)" style="fill: none; stroke: #595959"/>
   </g>
   <g id="line2d_64">
    <path d="M 394.71133 122.193926 
L 421.333158 122.193926 
" clip-path="url(#p92fd5cf6d3)" style="fill: none; stroke: #595959"/>
   </g>
   <g id="line2d_65">
    <path d="M 121.837592 113.471861 
L 148.45942 113.471861 
" clip-path="url(#p92fd5cf6d3)" style="fill: none; stroke: #595959"/>
   </g>
   <g id="line2d_66">
    <path d="M 221.669447 106.50102 
L 248.291275 106.50102 
" clip-path="url(#p92fd5cf6d3)" style="fill: none; stroke: #595959"/>
   </g>
   <g id="line2d_67">
    <path d="M 321.501303 104.459966 
L 348.123131 104.459966 
" clip-path="url(#p92fd5cf6d3)" style="fill: none; stroke: #595959"/>
   </g>
   <g id="line2d_68">
    <path d="M 421.333158 119.867707 
L 447.954986 119.867707 
" clip-path="url(#p92fd5cf6d3)" style="fill: none; stroke: #595959"/>
   </g>
   <g id="line2d_69">
    <path d="M 148.45942 114.000091 
L 175.081248 114.000091 
" clip-path="url(#p92fd5cf6d3)" style="fill: none; stroke: #595959"/>
   </g>
   <g id="line2d_70">
    <path d="M 248.291275 113.423883 
L 274.913104 113.423883 
" clip-path="url(#p92fd5cf6d3)" style="fill: none; stroke: #595959"/>
   </g>
   <g id="line2d_71">
    <path d="M 348.123131 101.177032 
L 374.744959 101.177032 
" clip-path="url(#p92fd5cf6d3)" style="fill: none; stroke: #595959"/>
   </g>
   <g id="line2d_72">
    <path d="M 447.954986 109.86694 
L 474.576814 109.86694 
" clip-path="url(#p92fd5cf6d3)" style="fill: none; stroke: #595959"/>
   </g>
   <g id="patch_18">
    <path d="M 85.232578 142.217241 
L 85.232578 38.544492 
" style="fill: none; stroke: #262626; stroke-width: 1.875; stroke-linejoin: miter; stroke-linecap: square"/>
   </g>
   <g id="patch_19">
    <path d="M 484.56 142.217241 
L 484.56 38.544492 
" style="fill: none; stroke: #262626; stroke-width: 1.875; stroke-linejoin: miter; stroke-linecap: square"/>
   </g>
   <g id="patch_20">
    <path d="M 85.232578 142.217241 
L 484.56 142.217241 
" style="fill: none; stroke: #262626; stroke-width: 1.875; stroke-linejoin: miter; stroke-linecap: square"/>
   </g>
   <g id="patch_21">
    <path d="M 85.232578 38.544492 
L 484.56 38.544492 
" style="fill: none; stroke: #262626; stroke-width: 1.875; stroke-linejoin: miter; stroke-linecap: square"/>
   </g>
   <g id="PathCollection_1">
    <defs>
     <path id="C0_0_ef1ad71938" d="M 0 1.5 
C 0.397805 1.5 0.77937 1.341951 1.06066 1.06066 
C 1.341951 0.77937 1.5 0.397805 1.5 -0 
C 1.5 -0.397805 1.341951 -0.77937 1.06066 -1.06066 
C 0.77937 -1.341951 0.397805 -1.5 0 -1.5 
C -0.397805 -1.5 -0.77937 -1.341951 -1.06066 -1.06066 
C -1.341951 -0.77937 -1.5 -0.397805 -1.5 0 
C -1.5 0.397805 -1.341951 0.77937 -1.06066 1.06066 
C -0.77937 1.341951 -0.397805 1.5 0 1.5 
z
"/>
    </defs>
    <g clip-path="url(#p92fd5cf6d3)">
     <use xlink:href="#C0_0_ef1ad71938" x="110.495196" y="114.062046" style="fill: #262626; fill-opacity: 0.45"/>
    </g>
    <g clip-path="url(#p92fd5cf6d3)">
     <use xlink:href="#C0_0_ef1ad71938" x="111.216214" y="106.763604" style="fill: #262626; fill-opacity: 0.45"/>
    </g>
    <g clip-path="url(#p92fd5cf6d3)">
     <use xlink:href="#C0_0_ef1ad71938" x="105.81361" y="137.504843" style="fill: #262626; fill-opacity: 0.45"/>
    </g>
    <g clip-path="url(#p92fd5cf6d3)">
     <use xlink:href="#C0_0_ef1ad71938" x="110.636107" y="110.732525" style="fill: #262626; fill-opacity: 0.45"/>
    </g>
    <g clip-path="url(#p92fd5cf6d3)">
     <use xlink:href="#C0_0_ef1ad71938" x="105.345969" y="113.479625" style="fill: #262626; fill-opacity: 0.45"/>
    </g>
    <g clip-path="url(#p92fd5cf6d3)">
     <use xlink:href="#C0_0_ef1ad71938" x="106.176776" y="105.855652" style="fill: #262626; fill-opacity: 0.45"/>
    </g>
   </g>
   <g id="PathCollection_2">
    <defs>
     <path id="C1_0_a66ee9de1c" d="M 0 1.5 
C 0.397805 1.5 0.77937 1.341951 1.06066 1.06066 
C 1.341951 0.77937 1.5 0.397805 1.5 -0 
C 1.5 -0.397805 1.341951 -0.77937 1.06066 -1.06066 
C 0.77937 -1.341951 0.397805 -1.5 0 -1.5 
C -0.397805 -1.5 -0.77937 -1.341951 -1.06066 -1.06066 
C -1.341951 -0.77937 -1.5 -0.397805 -1.5 0 
C -1.5 0.397805 -1.341951 0.77937 -1.06066 1.06066 
C -0.77937 1.341951 -0.397805 1.5 0 1.5 
z
"/>
    </defs>
    <g clip-path="url(#p92fd5cf6d3)">
     <use xlink:href="#C1_0_a66ee9de1c" x="132.848911" y="117.712884" style="fill: #131313; fill-opacity: 0.45"/>
    </g>
    <g clip-path="url(#p92fd5cf6d3)">
     <use xlink:href="#C1_0_a66ee9de1c" x="135.562161" y="109.230838" style="fill: #131313; fill-opacity: 0.45"/>
    </g>
    <g clip-path="url(#p92fd5cf6d3)">
     <use xlink:href="#C1_0_a66ee9de1c" x="135.210886" y="135.680453" style="fill: #131313; fill-opacity: 0.45"/>
    </g>
    <g clip-path="url(#p92fd5cf6d3)">
     <use xlink:href="#C1_0_a66ee9de1c" x="137.769971" y="123.512142" style="fill: #131313; fill-opacity: 0.45"/>
    </g>
    <g clip-path="url(#p92fd5cf6d3)">
     <use xlink:href="#C1_0_a66ee9de1c" x="134.628995" y="109.210408" style="fill: #131313; fill-opacity: 0.45"/>
    </g>
    <g clip-path="url(#p92fd5cf6d3)">
     <use xlink:href="#C1_0_a66ee9de1c" x="133.231694" y="105.204895" style="fill: #131313; fill-opacity: 0.45"/>
    </g>
   </g>
   <g id="PathCollection_3">
    <defs>
     <path id="C2_0_472c82d062" d="M 0 1.5 
C 0.397805 1.5 0.77937 1.341951 1.06066 1.06066 
C 1.341951 0.77937 1.5 0.397805 1.5 -0 
C 1.5 -0.397805 1.341951 -0.77937 1.06066 -1.06066 
C 0.77937 -1.341951 0.397805 -1.5 0 -1.5 
C -0.397805 -1.5 -0.77937 -1.341951 -1.06066 -1.06066 
C -1.341951 -0.77937 -1.5 -0.397805 -1.5 0 
C -1.5 0.397805 -1.341951 0.77937 -1.06066 1.06066 
C -0.77937 1.341951 -0.397805 1.5 0 1.5 
z
"/>
    </defs>
    <g clip-path="url(#p92fd5cf6d3)">
     <use xlink:href="#C2_0_472c82d062" x="160.695196" y="132.377669" style="fill-opacity: 0.45"/>
    </g>
    <g clip-path="url(#p92fd5cf6d3)">
     <use xlink:href="#C2_0_472c82d062" x="159.666168" y="104.624786" style="fill-opacity: 0.45"/>
    </g>
    <g clip-path="url(#p92fd5cf6d3)">
     <use xlink:href="#C2_0_472c82d062" x="163.0101" y="131.03985" style="fill-opacity: 0.45"/>
    </g>
    <g clip-path="url(#p92fd5cf6d3)">
     <use xlink:href="#C2_0_472c82d062" x="162.683945" y="113.323459" style="fill-opacity: 0.45"/>
    </g>
    <g clip-path="url(#p92fd5cf6d3)">
     <use xlink:href="#C2_0_472c82d062" x="164.969557" y="109.834157" style="fill-opacity: 0.45"/>
    </g>
    <g clip-path="url(#p92fd5cf6d3)">
     <use xlink:href="#C2_0_472c82d062" x="162.701333" y="114.676724" style="fill-opacity: 0.45"/>
    </g>
   </g>
   <g id="PathCollection_4">
    <defs>
     <path id="C3_0_dcbbf86d80" d="M 0 1.5 
C 0.397805 1.5 0.77937 1.341951 1.06066 1.06066 
C 1.341951 0.77937 1.5 0.397805 1.5 -0 
C 1.5 -0.397805 1.341951 -0.77937 1.06066 -1.06066 
C 0.77937 -1.341951 0.397805 -1.5 0 -1.5 
C -0.397805 -1.5 -0.77937 -1.341951 -1.06066 -1.06066 
C -1.341951 -0.77937 -1.5 -0.397805 -1.5 0 
C -1.5 0.397805 -1.341951 0.77937 -1.06066 1.06066 
C -0.77937 1.341951 -0.397805 1.5 0 1.5 
z
"/>
    </defs>
    <g clip-path="url(#p92fd5cf6d3)">
     <use xlink:href="#C3_0_dcbbf86d80" x="205.452787" y="108.159043" style="fill: #262626; fill-opacity: 0.45"/>
    </g>
    <g clip-path="url(#p92fd5cf6d3)">
     <use xlink:href="#C3_0_dcbbf86d80" x="207.471405" y="103.545228" style="fill: #262626; fill-opacity: 0.45"/>
    </g>
    <g clip-path="url(#p92fd5cf6d3)">
     <use xlink:href="#C3_0_dcbbf86d80" x="208.198309" y="115.555185" style="fill: #262626; fill-opacity: 0.45"/>
    </g>
    <g clip-path="url(#p92fd5cf6d3)">
     <use xlink:href="#C3_0_dcbbf86d80" x="209.341464" y="120.756675" style="fill: #262626; fill-opacity: 0.45"/>
    </g>
    <g clip-path="url(#p92fd5cf6d3)">
     <use xlink:href="#C3_0_dcbbf86d80" x="209.699432" y="121.364856" style="fill: #262626; fill-opacity: 0.45"/>
    </g>
    <g clip-path="url(#p92fd5cf6d3)">
     <use xlink:href="#C3_0_dcbbf86d80" x="209.624532" y="98.733912" style="fill: #262626; fill-opacity: 0.45"/>
    </g>
   </g>
   <g id="PathCollection_5">
    <defs>
     <path id="C4_0_9bb233db9f" d="M 0 1.5 
C 0.397805 1.5 0.77937 1.341951 1.06066 1.06066 
C 1.341951 0.77937 1.5 0.397805 1.5 -0 
C 1.5 -0.397805 1.341951 -0.77937 1.06066 -1.06066 
C 0.77937 -1.341951 0.397805 -1.5 0 -1.5 
C -0.397805 -1.5 -0.77937 -1.341951 -1.06066 -1.06066 
C -1.341951 -0.77937 -1.5 -0.397805 -1.5 0 
C -1.5 0.397805 -1.341951 0.77937 -1.06066 1.06066 
C -0.77937 1.341951 -0.397805 1.5 0 1.5 
z
"/>
    </defs>
    <g clip-path="url(#p92fd5cf6d3)">
     <use xlink:href="#C4_0_9bb233db9f" x="233.300154" y="101.197446" style="fill: #131313; fill-opacity: 0.45"/>
    </g>
    <g clip-path="url(#p92fd5cf6d3)">
     <use xlink:href="#C4_0_9bb233db9f" x="237.681056" y="108.562681" style="fill: #131313; fill-opacity: 0.45"/>
    </g>
    <g clip-path="url(#p92fd5cf6d3)">
     <use xlink:href="#C4_0_9bb233db9f" x="233.337477" y="117.315968" style="fill: #131313; fill-opacity: 0.45"/>
    </g>
    <g clip-path="url(#p92fd5cf6d3)">
     <use xlink:href="#C4_0_9bb233db9f" x="235.536603" y="104.439359" style="fill: #131313; fill-opacity: 0.45"/>
    </g>
    <g clip-path="url(#p92fd5cf6d3)">
     <use xlink:href="#C4_0_9bb233db9f" x="234.855826" y="110.418016" style="fill: #131313; fill-opacity: 0.45"/>
    </g>
    <g clip-path="url(#p92fd5cf6d3)">
     <use xlink:href="#C4_0_9bb233db9f" x="237.034212" y="100.46062" style="fill: #131313; fill-opacity: 0.45"/>
    </g>
   </g>
   <g id="PathCollection_6">
    <defs>
     <path id="C5_0_8271be4bbb" d="M 0 1.5 
C 0.397805 1.5 0.77937 1.341951 1.06066 1.06066 
C 1.341951 0.77937 1.5 0.397805 1.5 -0 
C 1.5 -0.397805 1.341951 -0.77937 1.06066 -1.06066 
C 0.77937 -1.341951 0.397805 -1.5 0 -1.5 
C -0.397805 -1.5 -0.77937 -1.341951 -1.06066 -1.06066 
C -1.341951 -0.77937 -1.5 -0.397805 -1.5 0 
C -1.5 0.397805 -1.341951 0.77937 -1.06066 1.06066 
C -0.77937 1.341951 -0.397805 1.5 0 1.5 
z
"/>
    </defs>
    <g clip-path="url(#p92fd5cf6d3)">
     <use xlink:href="#C5_0_8271be4bbb" x="259.491755" y="103.184805" style="fill-opacity: 0.45"/>
    </g>
    <g clip-path="url(#p92fd5cf6d3)">
     <use xlink:href="#C5_0_8271be4bbb" x="260.358636" y="105.011808" style="fill-opacity: 0.45"/>
    </g>
    <g clip-path="url(#p92fd5cf6d3)">
     <use xlink:href="#C5_0_8271be4bbb" x="259.210705" y="114.94623" style="fill-opacity: 0.45"/>
    </g>
    <g clip-path="url(#p92fd5cf6d3)">
     <use xlink:href="#C5_0_8271be4bbb" x="264.822887" y="113.423883" style="fill-opacity: 0.45"/>
    </g>
    <g clip-path="url(#p92fd5cf6d3)">
     <use xlink:href="#C5_0_8271be4bbb" x="264.473655" y="114.002726" style="fill-opacity: 0.45"/>
    </g>
   </g>
   <g id="PathCollection_7">
    <defs>
     <path id="C6_0_1947c96bba" d="M 0 1.5 
C 0.397805 1.5 0.77937 1.341951 1.06066 1.06066 
C 1.341951 0.77937 1.5 0.397805 1.5 -0 
C 1.5 -0.397805 1.341951 -0.77937 1.06066 -1.06066 
C 0.77937 -1.341951 0.397805 -1.5 0 -1.5 
C -0.397805 -1.5 -0.77937 -1.341951 -1.06066 -1.06066 
C -1.341951 -0.77937 -1.5 -0.397805 -1.5 0 
C -1.5 0.397805 -1.341951 0.77937 -1.06066 1.06066 
C -0.77937 1.341951 -0.397805 1.5 0 1.5 
z
"/>
    </defs>
    <g clip-path="url(#p92fd5cf6d3)">
     <use xlink:href="#C6_0_1947c96bba" x="305.660849" y="101.865878" style="fill: #262626; fill-opacity: 0.45"/>
    </g>
    <g clip-path="url(#p92fd5cf6d3)">
     <use xlink:href="#C6_0_1947c96bba" x="309.574238" y="102.673872" style="fill: #262626; fill-opacity: 0.45"/>
    </g>
    <g clip-path="url(#p92fd5cf6d3)">
     <use xlink:href="#C6_0_1947c96bba" x="309.922246" y="109.711041" style="fill: #262626; fill-opacity: 0.45"/>
    </g>
    <g clip-path="url(#p92fd5cf6d3)">
     <use xlink:href="#C6_0_1947c96bba" x="310.024613" y="119.184097" style="fill: #262626; fill-opacity: 0.45"/>
    </g>
    <g clip-path="url(#p92fd5cf6d3)">
     <use xlink:href="#C6_0_1947c96bba" x="308.24594" y="111.622199" style="fill: #262626; fill-opacity: 0.45"/>
    </g>
    <g clip-path="url(#p92fd5cf6d3)">
     <use xlink:href="#C6_0_1947c96bba" x="308.268429" y="115.843008" style="fill: #262626; fill-opacity: 0.45"/>
    </g>
   </g>
   <g id="PathCollection_8">
    <defs>
     <path id="m87b6683add" d="M 0 1.5 
C 0.397805 1.5 0.77937 1.341951 1.06066 1.06066 
C 1.341951 0.77937 1.5 0.397805 1.5 0 
C 1.5 -0.397805 1.341951 -0.77937 1.06066 -1.06066 
C 0.77937 -1.341951 0.397805 -1.5 0 -1.5 
C -0.397805 -1.5 -0.77937 -1.341951 -1.06066 -1.06066 
C -1.341951 -0.77937 -1.5 -0.397805 -1.5 0 
C -1.5 0.397805 -1.341951 0.77937 -1.06066 1.06066 
C -0.77937 1.341951 -0.397805 1.5 0 1.5 
z
"/>
    </defs>
    <g clip-path="url(#p92fd5cf6d3)">
     <use xlink:href="#m87b6683add" x="334.812217" y="104.459966" style="fill: #131313; fill-opacity: 0.45"/>
    </g>
   </g>
   <g id="PathCollection_9">
    <defs>
     <path id="C7_0_82b6bbba41" d="M 0 1.5 
C 0.397805 1.5 0.77937 1.341951 1.06066 1.06066 
C 1.341951 0.77937 1.5 0.397805 1.5 -0 
C 1.5 -0.397805 1.341951 -0.77937 1.06066 -1.06066 
C 0.77937 -1.341951 0.397805 -1.5 0 -1.5 
C -0.397805 -1.5 -0.77937 -1.341951 -1.06066 -1.06066 
C -1.341951 -0.77937 -1.5 -0.397805 -1.5 0 
C -1.5 0.397805 -1.341951 0.77937 -1.06066 1.06066 
C -0.77937 1.341951 -0.397805 1.5 0 1.5 
z
"/>
    </defs>
    <g clip-path="url(#p92fd5cf6d3)">
     <use xlink:href="#C7_0_82b6bbba41" x="363.853574" y="102.026475" style="fill-opacity: 0.45"/>
    </g>
    <g clip-path="url(#p92fd5cf6d3)">
     <use xlink:href="#C7_0_82b6bbba41" x="363.910261" y="100.327588" style="fill-opacity: 0.45"/>
    </g>
    <g clip-path="url(#p92fd5cf6d3)">
     <use xlink:href="#C7_0_82b6bbba41" x="361.504139" y="111.491781" style="fill-opacity: 0.45"/>
    </g>
    <g clip-path="url(#p92fd5cf6d3)">
     <use xlink:href="#C7_0_82b6bbba41" x="363.838153" y="72.219301" style="fill-opacity: 0.45"/>
    </g>
   </g>
   <g id="PathCollection_10">
    <defs>
     <path id="C8_0_0c564867e3" d="M 0 1.5 
C 0.397805 1.5 0.77937 1.341951 1.06066 1.06066 
C 1.341951 0.77937 1.5 0.397805 1.5 -0 
C 1.5 -0.397805 1.341951 -0.77937 1.06066 -1.06066 
C 0.77937 -1.341951 0.397805 -1.5 0 -1.5 
C -0.397805 -1.5 -0.77937 -1.341951 -1.06066 -1.06066 
C -1.341951 -0.77937 -1.5 -0.397805 -1.5 0 
C -1.5 0.397805 -1.341951 0.77937 -1.06066 1.06066 
C -0.77937 1.341951 -0.397805 1.5 0 1.5 
z
"/>
    </defs>
    <g clip-path="url(#p92fd5cf6d3)">
     <use xlink:href="#C8_0_0c564867e3" x="405.820504" y="130.143575" style="fill: #262626; fill-opacity: 0.45"/>
    </g>
    <g clip-path="url(#p92fd5cf6d3)">
     <use xlink:href="#C8_0_0c564867e3" x="410.168523" y="115.02899" style="fill: #262626; fill-opacity: 0.45"/>
    </g>
    <g clip-path="url(#p92fd5cf6d3)">
     <use xlink:href="#C8_0_0c564867e3" x="405.070746" y="108.523805" style="fill: #262626; fill-opacity: 0.45"/>
    </g>
    <g clip-path="url(#p92fd5cf6d3)">
     <use xlink:href="#C8_0_0c564867e3" x="404.973587" y="129.358862" style="fill: #262626; fill-opacity: 0.45"/>
    </g>
   </g>
   <g id="PathCollection_11">
    <defs>
     <path id="C9_0_bc1b17034e" d="M 0 1.5 
C 0.397805 1.5 0.77937 1.341951 1.06066 1.06066 
C 1.341951 0.77937 1.5 0.397805 1.5 -0 
C 1.5 -0.397805 1.341951 -0.77937 1.06066 -1.06066 
C 0.77937 -1.341951 0.397805 -1.5 0 -1.5 
C -0.397805 -1.5 -0.77937 -1.341951 -1.06066 -1.06066 
C -1.341951 -0.77937 -1.5 -0.397805 -1.5 0 
C -1.5 0.397805 -1.341951 0.77937 -1.06066 1.06066 
C -0.77937 1.341951 -0.397805 1.5 0 1.5 
z
"/>
    </defs>
    <g clip-path="url(#p92fd5cf6d3)">
     <use xlink:href="#C9_0_bc1b17034e" x="433.457014" y="119.206252" style="fill: #131313; fill-opacity: 0.45"/>
    </g>
    <g clip-path="url(#p92fd5cf6d3)">
     <use xlink:href="#C9_0_bc1b17034e" x="433.09236" y="119.525228" style="fill: #131313; fill-opacity: 0.45"/>
    </g>
    <g clip-path="url(#p92fd5cf6d3)">
     <use xlink:href="#C9_0_bc1b17034e" x="433.134579" y="122.505003" style="fill: #131313; fill-opacity: 0.45"/>
    </g>
    <g clip-path="url(#p92fd5cf6d3)">
     <use xlink:href="#C9_0_bc1b17034e" x="437.597389" y="116.278804" style="fill: #131313; fill-opacity: 0.45"/>
    </g>
    <g clip-path="url(#p92fd5cf6d3)">
     <use xlink:href="#C9_0_bc1b17034e" x="432.618655" y="127.39485" style="fill: #131313; fill-opacity: 0.45"/>
    </g>
    <g clip-path="url(#p92fd5cf6d3)">
     <use xlink:href="#C9_0_bc1b17034e" x="433.002367" y="120.210187" style="fill: #131313; fill-opacity: 0.45"/>
    </g>
   </g>
   <g id="PathCollection_12">
    <defs>
     <path id="Ca_0_bfe8c74f40" d="M 0 1.5 
C 0.397805 1.5 0.77937 1.341951 1.06066 1.06066 
C 1.341951 0.77937 1.5 0.397805 1.5 -0 
C 1.5 -0.397805 1.341951 -0.77937 1.06066 -1.06066 
C 0.77937 -1.341951 0.397805 -1.5 0 -1.5 
C -0.397805 -1.5 -0.77937 -1.341951 -1.06066 -1.06066 
C -1.341951 -0.77937 -1.5 -0.397805 -1.5 0 
C -1.5 0.397805 -1.341951 0.77937 -1.06066 1.06066 
C -0.77937 1.341951 -0.397805 1.5 0 1.5 
z
"/>
    </defs>
    <g clip-path="url(#p92fd5cf6d3)">
     <use xlink:href="#Ca_0_bfe8c74f40" x="460.78022" y="111.072587" style="fill-opacity: 0.45"/>
    </g>
    <g clip-path="url(#p92fd5cf6d3)">
     <use xlink:href="#Ca_0_bfe8c74f40" x="458.189023" y="109.86694" style="fill-opacity: 0.45"/>
    </g>
    <g clip-path="url(#p92fd5cf6d3)">
     <use xlink:href="#Ca_0_bfe8c74f40" x="458.156137" y="112.347372" style="fill-opacity: 0.45"/>
    </g>
    <g clip-path="url(#p92fd5cf6d3)">
     <use xlink:href="#Ca_0_bfe8c74f40" x="460.496722" y="96.77662" style="fill-opacity: 0.45"/>
    </g>
    <g clip-path="url(#p92fd5cf6d3)">
     <use xlink:href="#Ca_0_bfe8c74f40" x="461.943422" y="43.25689" style="fill-opacity: 0.45"/>
    </g>
   </g>
   <g id="text_9">
    <!-- Frozen DINP–CRC program by macrophage subtype -->
    <g style="fill: #262626" transform="translate(73.818164 32.544492) scale(0.18 -0.18)">
     <defs>
      <path id="ArialMT-5d" d="M 125 0 
L 125 456 
L 2238 2881 
Q 1878 2863 1603 2863 
L 250 2863 
L 250 3319 
L 2963 3319 
L 2963 2947 
L 1166 841 
L 819 456 
Q 1197 484 1528 484 
L 3063 484 
L 3063 0 
L 125 0 
z
" transform="scale(0.015625)"/>
      <path id="ArialMT-3" transform="scale(0.015625)"/>
      <path id="ArialMT-27" d="M 494 0 
L 494 4581 
L 2072 4581 
Q 2606 4581 2888 4516 
Q 3281 4425 3559 4188 
Q 3922 3881 4101 3404 
Q 4281 2928 4281 2316 
Q 4281 1794 4159 1391 
Q 4038 988 3847 723 
Q 3656 459 3429 307 
Q 3203 156 2883 78 
Q 2563 0 2147 0 
L 494 0 
z
M 1100 541 
L 2078 541 
Q 2531 541 2789 625 
Q 3047 709 3200 863 
Q 3416 1078 3536 1442 
Q 3656 1806 3656 2325 
Q 3656 3044 3420 3430 
Q 3184 3816 2847 3947 
Q 2603 4041 2063 4041 
L 1100 4041 
L 1100 541 
z
" transform="scale(0.015625)"/>
      <path id="ArialMT-2c" d="M 597 0 
L 597 4581 
L 1203 4581 
L 1203 0 
L 597 0 
z
" transform="scale(0.015625)"/>
      <path id="ArialMT-b1" d="M -13 1431 
L -13 1884 
L 3547 1884 
L 3547 1431 
L -13 1431 
z
" transform="scale(0.015625)"/>
      <path id="ArialMT-35" d="M 503 0 
L 503 4581 
L 2534 4581 
Q 3147 4581 3465 4457 
Q 3784 4334 3975 4021 
Q 4166 3709 4166 3331 
Q 4166 2844 3850 2509 
Q 3534 2175 2875 2084 
Q 3116 1969 3241 1856 
Q 3506 1613 3744 1247 
L 4541 0 
L 3778 0 
L 3172 953 
Q 2906 1366 2734 1584 
Q 2563 1803 2427 1890 
Q 2291 1978 2150 2013 
Q 2047 2034 1813 2034 
L 1109 2034 
L 1109 0 
L 503 0 
z
M 1109 2559 
L 2413 2559 
Q 2828 2559 3062 2645 
Q 3297 2731 3419 2920 
Q 3541 3109 3541 3331 
Q 3541 3656 3305 3865 
Q 3069 4075 2559 4075 
L 1109 4075 
L 1109 2559 
z
" transform="scale(0.015625)"/>
      <path id="ArialMT-4b" d="M 422 0 
L 422 4581 
L 984 4581 
L 984 2938 
Q 1378 3394 1978 3394 
Q 2347 3394 2619 3248 
Q 2891 3103 3008 2847 
Q 3125 2591 3125 2103 
L 3125 0 
L 2563 0 
L 2563 2103 
Q 2563 2525 2380 2717 
Q 2197 2909 1863 2909 
Q 1613 2909 1392 2779 
Q 1172 2650 1078 2428 
Q 984 2206 984 1816 
L 984 0 
L 422 0 
z
" transform="scale(0.015625)"/>
     </defs>
     <use xlink:href="#ArialMT-29"/>
     <use xlink:href="#ArialMT-55" transform="translate(61.078125 0)"/>
     <use xlink:href="#ArialMT-52" transform="translate(94.375 0)"/>
     <use xlink:href="#ArialMT-5d" transform="translate(149.984375 0)"/>
     <use xlink:href="#ArialMT-48" transform="translate(199.984375 0)"/>
     <use xlink:href="#ArialMT-51" transform="translate(255.59375 0)"/>
     <use xlink:href="#ArialMT-3" transform="translate(311.203125 0)"/>
     <use xlink:href="#ArialMT-27" transform="translate(338.984375 0)"/>
     <use xlink:href="#ArialMT-2c" transform="translate(411.203125 0)"/>
     <use xlink:href="#ArialMT-31" transform="translate(438.984375 0)"/>
     <use xlink:href="#ArialMT-33" transform="translate(511.203125 0)"/>
     <use xlink:href="#ArialMT-b1" transform="translate(577.90625 0)"/>
     <use xlink:href="#ArialMT-26" transform="translate(633.515625 0)"/>
     <use xlink:href="#ArialMT-35" transform="translate(705.734375 0)"/>
     <use xlink:href="#ArialMT-26" transform="translate(777.953125 0)"/>
     <use xlink:href="#ArialMT-3" transform="translate(850.171875 0)"/>
     <use xlink:href="#ArialMT-53" transform="translate(877.953125 0)"/>
     <use xlink:href="#ArialMT-55" transform="translate(933.5625 0)"/>
     <use xlink:href="#ArialMT-52" transform="translate(966.859375 0)"/>
     <use xlink:href="#ArialMT-4a" transform="translate(1022.46875 0)"/>
     <use xlink:href="#ArialMT-55" transform="translate(1078.078125 0)"/>
     <use xlink:href="#ArialMT-44" transform="translate(1111.375 0)"/>
     <use xlink:href="#ArialMT-50" transform="translate(1166.984375 0)"/>
     <use xlink:href="#ArialMT-3" transform="translate(1250.28125 0)"/>
     <use xlink:href="#ArialMT-45" transform="translate(1278.0625 0)"/>
     <use xlink:href="#ArialMT-5c" transform="translate(1333.671875 0)"/>
     <use xlink:href="#ArialMT-3" transform="translate(1383.671875 0)"/>
     <use xlink:href="#ArialMT-50" transform="translate(1411.453125 0)"/>
     <use xlink:href="#ArialMT-44" transform="translate(1494.75 0)"/>
     <use xlink:href="#ArialMT-46" transform="translate(1550.359375 0)"/>
     <use xlink:href="#ArialMT-55" transform="translate(1600.359375 0)"/>
     <use xlink:href="#ArialMT-52" transform="translate(1633.65625 0)"/>
     <use xlink:href="#ArialMT-53" transform="translate(1689.265625 0)"/>
     <use xlink:href="#ArialMT-4b" transform="translate(1744.875 0)"/>
     <use xlink:href="#ArialMT-44" transform="translate(1800.484375 0)"/>
     <use xlink:href="#ArialMT-4a" transform="translate(1856.09375 0)"/>
     <use xlink:href="#ArialMT-48" transform="translate(1911.703125 0)"/>
     <use xlink:href="#ArialMT-3" transform="translate(1967.3125 0)"/>
     <use xlink:href="#ArialMT-56" transform="translate(1995.09375 0)"/>
     <use xlink:href="#ArialMT-58" transform="translate(2045.09375 0)"/>
     <use xlink:href="#ArialMT-45" transform="translate(2100.703125 0)"/>
     <use xlink:href="#ArialMT-57" transform="translate(2156.3125 0)"/>
     <use xlink:href="#ArialMT-5c" transform="translate(2184.09375 0)"/>
     <use xlink:href="#ArialMT-53" transform="translate(2234.09375 0)"/>
     <use xlink:href="#ArialMT-48" transform="translate(2289.703125 0)"/>
    </g>
   </g>
   <g id="legend_1">
    <g id="patch_22">
     <path d="M 369.779297 148.09166 
L 473.01 148.09166 
Q 476.31 148.09166 476.31 144.79166 
L 476.31 50.094492 
Q 476.31 46.794492 473.01 46.794492 
L 369.779297 46.794492 
Q 366.479297 46.794492 366.479297 50.094492 
L 366.479297 144.79166 
Q 366.479297 148.09166 369.779297 148.09166 
z
" style="fill: #ffffff; opacity: 0.8; stroke: #cccccc; stroke-width: 1.5; stroke-linejoin: miter"/>
    </g>
    <g id="text_10">
     <!-- condition -->
     <g style="fill: #262626" transform="translate(385.370742 66.498984) scale(0.18 -0.18)">
      <use xlink:href="#ArialMT-46"/>
      <use xlink:href="#ArialMT-52" transform="translate(50 0)"/>
      <use xlink:href="#ArialMT-51" transform="translate(105.609375 0)"/>
      <use xlink:href="#ArialMT-47" transform="translate(161.21875 0)"/>
      <use xlink:href="#ArialMT-4c" transform="translate(216.828125 0)"/>
      <use xlink:href="#ArialMT-57" transform="translate(239.046875 0)"/>
      <use xlink:href="#ArialMT-4c" transform="translate(266.828125 0)"/>
      <use xlink:href="#ArialMT-52" transform="translate(289.046875 0)"/>
      <use xlink:href="#ArialMT-51" transform="translate(344.65625 0)"/>
     </g>
    </g>
    <g id="patch_23">
     <path d="M 373.079297 90.549521 
L 406.079297 90.549521 
L 406.079297 78.999521 
L 373.079297 78.999521 
z
" style="fill: #72b6a1; stroke: #595959; stroke-width: 1.5; stroke-linejoin: miter"/>
    </g>
    <g id="text_11">
     <!-- border -->
     <g style="fill: #262626" transform="translate(419.279297 90.549521) scale(0.165 -0.165)">
      <use xlink:href="#ArialMT-45"/>
      <use xlink:href="#ArialMT-52" transform="translate(55.609375 0)"/>
      <use xlink:href="#ArialMT-55" transform="translate(111.21875 0)"/>
      <use xlink:href="#ArialMT-47" transform="translate(144.515625 0)"/>
      <use xlink:href="#ArialMT-48" transform="translate(200.125 0)"/>
      <use xlink:href="#ArialMT-55" transform="translate(255.734375 0)"/>
     </g>
    </g>
    <g id="patch_24">
     <path d="M 373.079297 114.284385 
L 406.079297 114.284385 
L 406.079297 102.734385 
L 373.079297 102.734385 
z
" style="fill: #e99675; stroke: #595959; stroke-width: 1.5; stroke-linejoin: miter"/>
    </g>
    <g id="text_12">
     <!-- normal -->
     <g style="fill: #262626" transform="translate(419.279297 114.284385) scale(0.165 -0.165)">
      <use xlink:href="#ArialMT-51"/>
      <use xlink:href="#ArialMT-52" transform="translate(55.609375 0)"/>
      <use xlink:href="#ArialMT-55" transform="translate(111.21875 0)"/>
      <use xlink:href="#ArialMT-50" transform="translate(144.515625 0)"/>
      <use xlink:href="#ArialMT-44" transform="translate(227.8125 0)"/>
      <use xlink:href="#ArialMT-4f" transform="translate(283.421875 0)"/>
     </g>
    </g>
    <g id="patch_25">
     <path d="M 373.079297 138.019248 
L 406.079297 138.019248 
L 406.079297 126.469248 
L 373.079297 126.469248 
z
" style="fill: #95a3c3; stroke: #595959; stroke-width: 1.5; stroke-linejoin: miter"/>
    </g>
    <g id="text_13">
     <!-- tumor -->
     <g style="fill: #262626" transform="translate(419.279297 138.019248) scale(0.165 -0.165)">
      <use xlink:href="#ArialMT-57"/>
      <use xlink:href="#ArialMT-58" transform="translate(27.78125 0)"/>
      <use xlink:href="#ArialMT-50" transform="translate(83.390625 0)"/>
      <use xlink:href="#ArialMT-52" transform="translate(166.6875 0)"/>
      <use xlink:href="#ArialMT-55" transform="translate(222.296875 0)"/>
     </g>
    </g>
   </g>
  </g>
 </g>
 <defs>
  <clipPath id="p92fd5cf6d3">
   <rect x="85.232578" y="38.544492" width="399.327422" height="103.672749"/>
  </clipPath>
 </defs>
</svg>
