<svg xmlns="http://www.w3.org/2000/svg" width="1100" height="700" viewBox="0 0 1100 700"><rect width="100%" height="100%" fill="white"/><text x="550" y="38" text-anchor="middle" font-size="22" font-family="Arial">同一(200天,12月]结局：L3信息到L6信息的风险更新（OOB）</text><text x="45" y="128" font-size="16" font-family="Arial">阴→阴 (n=994)</text><line x1="170" y1="124" x2="219.9971815976723" y2="124" stroke="#64748b" stroke-width="7"/><line x1="170" y1="152" x2="210.46228712747654" y2="152" stroke="#238b67" stroke-width="7"/><text x="227.9971815976723" y="128" font-size="12" font-family="Arial">before 6.7%</text><text x="218.46228712747654" y="156" font-size="12" font-family="Arial">after 5.4%; Δ -0.7%</text><text x="45" y="243" font-size="16" font-family="Arial">阴→阳 (n=25)</text><line x1="170" y1="239" x2="222.86438273701452" y2="239" stroke="#64748b" stroke-width="7"/><line x1="170" y1="267" x2="574.0119530205025" y2="267" stroke="#e67e22" stroke-width="7"/><text x="230.86438273701452" y="243" font-size="12" font-family="Arial">before 7.0%</text><text x="582.0119530205025" y="271" font-size="12" font-family="Arial">after 53.9%; Δ +47.1%</text><text x="45" y="358" font-size="16" font-family="Arial">阳→阴 (n=18)</text><line x1="170" y1="354" x2="668.9016093070866" y2="354" stroke="#64748b" stroke-width="7"/><line x1="170" y1="382" x2="287.78772250136944" y2="382" stroke="#4c91c6" stroke-width="7"/><text x="676.9016093070866" y="358" font-size="12" font-family="Arial">before 66.5%</text><text x="295.78772250136944" y="386" font-size="12" font-family="Arial">after 15.7%; Δ -52.8%</text><text x="45" y="473" font-size="16" font-family="Arial">阳→阳 (n=33)</text><line x1="170" y1="469" x2="684.716353475445" y2="469" stroke="#64748b" stroke-width="7"/><line x1="170" y1="497" x2="763.4732193932729" y2="497" stroke="#b82e38" stroke-width="7"/><text x="692.716353475445" y="473" font-size="12" font-family="Arial">before 68.6%</text><text x="771.4732193932729" y="501" font-size="12" font-family="Arial">after 79.1%; Δ +8.9%</text><text x="75" y="82" font-size="12" font-family="Arial">灰色：L3可用信息；彩色：L6更新后；均针对同一预测窗口</text></svg>