<svg xmlns="http://www.w3.org/2000/svg" width="1050" height="520" viewBox="0 0 1050 520">
<rect width="100%" height="100%" fill="white"/>
<style>text{font-family:Arial,"Microsoft YaHei",sans-serif;fill:#202124}.title{font-size:23px;font-weight:bold}.sub{font-size:14px;fill:#555}.lab{font-size:14px}.tiny{font-size:12px;fill:#555}</style>
<text x="525.0" y="34" class="title" text-anchor="middle">按 L3→L6 当前 MRD 转移分层的风险更新</text>
<text x="525.0" y="59" class="sub" text-anchor="middle">点为中位数；线为患者 bootstrap 95% CI；病例窗随 landmark 缩短。</text>
<line x1="600.0" y1="100" x2="600.0" y2="405" stroke="#555" stroke-dasharray="5,4"/>
<text x="205" y="105.0" class="lab" text-anchor="end">阴→阴 n=569</text>
<line x1="588.3459487224108" y1="100.0" x2="588.3459487224108" y2="100.0" stroke="#27845c" stroke-width="3"/><circle cx="588.3459487224108" cy="100.0" r="7" fill="#27845c"/>
<text x="205" y="206.66666666666669" class="lab" text-anchor="end">阴→阳 n=10</text>
<line x1="727.8411022265207" y1="201.66666666666669" x2="914.36391933776" y2="201.66666666666669" stroke="#d66b24" stroke-width="3"/><circle cx="895.1162251566012" cy="201.66666666666669" r="7" fill="#d66b24"/>
<text x="205" y="308.33333333333337" class="lab" text-anchor="end">阳→阴 n=25</text>
<line x1="296.0" y1="303.33333333333337" x2="297.97502903660387" y2="303.33333333333337" stroke="#327eb7" stroke-width="3"/><circle cx="296.0" cy="303.33333333333337" r="7" fill="#327eb7"/>
<text x="205" y="410.0" class="lab" text-anchor="end">阳→阳 n=34</text>
<line x1="599.9283150371296" y1="405.0" x2="648.436035443962" y2="405.0" stroke="#b43b45" stroke-width="3"/><circle cx="611.1696550125444" cy="405.0" r="7" fill="#b43b45"/>
<line x1="220.0" y1="405" x2="220.0" y2="411" stroke="#333"/><text x="220.0" y="430" text-anchor="middle" class="tiny">-0.39</text>
<line x1="410.0" y1="405" x2="410.0" y2="411" stroke="#333"/><text x="410.0" y="430" text-anchor="middle" class="tiny">-0.19</text>
<line x1="600.0" y1="405" x2="600.0" y2="411" stroke="#333"/><text x="600.0" y="430" text-anchor="middle" class="tiny">+0.00</text>
<line x1="790.0" y1="405" x2="790.0" y2="411" stroke="#333"/><text x="790.0" y="430" text-anchor="middle" class="tiny">+0.19</text>
<line x1="980.0" y1="405" x2="980.0" y2="411" stroke="#333"/><text x="980.0" y="430" text-anchor="middle" class="tiny">+0.39</text>
<text x="600.0" y="495" text-anchor="middle" class="lab">Δ风险 = Risk6 − Risk3</text>
</svg>